<svg version="1.1" xmlns="http://www.w3.org/2000/svg" xmlns:xlink="http://www.w3.org/1999/xlink" x="0" y="0" width="121"
  height="121" viewBox="0, 0, 121, 121">
  <g id="Layer_1">
    <path
      d="M60.388,0 C27.041,0 0,27.035 0,60.388 C0,87.068 17.303,109.704 41.297,117.689 C44.315,118.248 45.423,116.379 45.423,114.784 C45.423,113.345 45.367,108.587 45.341,103.541 C28.541,107.194 24.996,96.416 24.996,96.416 C22.249,89.437 18.291,87.58 18.291,87.58 C12.812,83.832 18.704,83.909 18.704,83.909 C24.768,84.335 27.961,90.133 27.961,90.133 C33.347,99.364 42.088,96.695 45.534,95.152 C46.077,91.25 47.641,88.585 49.368,87.077 C35.955,85.551 21.855,80.372 21.855,57.233 C21.855,50.641 24.214,45.253 28.077,41.024 C27.45,39.503 25.383,33.361 28.663,25.043 C28.663,25.043 33.734,23.421 45.273,31.234 C50.09,29.896 55.256,29.225 60.388,29.201 C65.52,29.225 70.69,29.896 75.516,31.234 C87.042,23.421 92.106,25.043 92.106,25.043 C95.393,33.361 93.326,39.503 92.699,41.024 C96.571,45.253 98.913,50.641 98.913,57.233 C98.913,80.428 84.786,85.534 71.339,87.029 C73.505,88.903 75.435,92.578 75.435,98.212 C75.435,106.292 75.366,112.795 75.366,114.784 C75.366,116.392 76.452,118.274 79.513,117.682 C103.495,109.688 120.776,87.06 120.776,60.388 C120.776,27.035 93.739,0 60.388,0"
      fill="#161514" />
    <path
      d="M22.872,86.703 C22.739,87.004 22.267,87.094 21.837,86.888 C21.398,86.69 21.153,86.281 21.295,85.98 C21.425,85.672 21.897,85.586 22.335,85.792 C22.773,85.989 23.023,86.402 22.872,86.703"
      fill="#161514" />
    <path
      d="M25.319,89.432 C25.031,89.699 24.467,89.575 24.086,89.153 C23.69,88.732 23.617,88.168 23.909,87.898 C24.206,87.631 24.752,87.756 25.147,88.177 C25.543,88.603 25.62,89.161 25.319,89.432"
      fill="#161514" />
    <path
      d="M27.7,92.909 C27.33,93.167 26.724,92.926 26.35,92.389 C25.98,91.851 25.98,91.207 26.359,90.949 C26.733,90.691 27.33,90.924 27.709,91.456 C28.078,92.002 28.078,92.646 27.7,92.909"
      fill="#161514" />
    <path
      d="M30.961,96.27 C30.63,96.635 29.925,96.537 29.409,96.038 C28.881,95.552 28.734,94.861 29.065,94.496 C29.401,94.13 30.11,94.233 30.63,94.727 C31.154,95.213 31.313,95.909 30.961,96.27"
      fill="#161514" />
    <path
      d="M35.461,98.221 C35.314,98.694 34.636,98.908 33.952,98.707 C33.269,98.5 32.822,97.947 32.96,97.469 C33.102,96.993 33.784,96.769 34.473,96.984 C35.155,97.19 35.603,97.74 35.461,98.221"
      fill="#161514" />
    <path
      d="M40.404,98.582 C40.421,99.08 39.841,99.493 39.123,99.502 C38.401,99.518 37.816,99.115 37.808,98.625 C37.808,98.122 38.376,97.714 39.097,97.701 C39.815,97.687 40.404,98.088 40.404,98.582"
      fill="#161514" />
    <path
      d="M45.002,97.8 C45.088,98.285 44.589,98.784 43.876,98.917 C43.175,99.046 42.526,98.745 42.437,98.264 C42.35,97.766 42.857,97.267 43.558,97.138 C44.272,97.014 44.911,97.306 45.002,97.8"
      fill="#161514" />
  </g>
</svg>