<svg version="1.1" xmlns="http://www.w3.org/2000/svg" xmlns:xlink="http://www.w3.org/1999/xlink" x="0" y="0" width="257"
  height="392" viewBox="0, 0, 256.68, 391.608">
  <g id="Layer_2">
    <path
      d="M20.433,140.791 C20.433,164.791 19.111,198.868 18.5,204.167 C17.75,210.667 18.267,229.374 19.6,242.707 C20.937,256.078 27.839,284.88 32.6,299.957 C36.6,312.624 51.219,327.906 62.1,335.957 C78.767,348.291 91.433,353.791 98.433,355.457 C104.951,357.009 117.1,358.457 126.433,358.457 C136.767,358.457 152.629,356.79 162.433,352.791 C170.5,349.5 190.023,338.155 198.1,329.457 C206.767,320.124 213.6,316.124 219.6,301.457 C222.152,295.219 231.376,269.984 234.1,255.207 C236.835,240.372 236.499,228.523 236.833,217.167 C237.5,194.5 233.767,148.124 229.1,122.791"
      fill-opacity="0" stroke="#000000" stroke-width="2" />
    <path
      d="M105.6,243.291 C100.267,243.291 85.267,243.291 77.267,245.291 C69.267,247.291 58.85,249.207 53.85,253.541 C48.85,257.874 42.35,266.707 42.1,275.957 C41.965,280.956 45.433,292.707 51.433,297.707 C57.433,302.707 56.517,297.291 54.517,293.957 C52.517,290.624 49.267,281.207 53.6,276.207 C57.933,271.207 68.6,269.957 74.267,269.624 C79.933,269.291 101.6,269.291 106.267,269.957 C110.933,270.624 119.267,266.957 121.6,266.957 C123.933,266.957 131.6,270.291 134.6,270.624 C137.6,270.957 168.933,267.957 174.6,268.624 C180.267,269.291 189.1,271.624 191.767,274.957 C194.433,278.291 193.267,293.457 190.933,295.457 C188.6,297.457 189.6,302.124 195.6,296.457 C201.6,290.791 206.154,278.346 204.767,270.624 C204,266.357 202.9,263.957 201.8,262.157 C198.135,256.159 191.267,248.624 181.933,246.624 C172.6,244.624 153.933,243.291 149.933,243.291 C145.933,243.291 137.968,243.811 136.267,244.624 C134.35,245.541 127.017,248.457 122.85,248.791 C119.461,249.062 110.6,243.291 105.6,243.291 z"
      fill="#000000" />
    <path
      d="M180.35,146.31 C198.565,146.067 216.498,149.712 234.6,150.957 C237.011,151.087 236.933,153.291 236.933,154.624 C236.933,155.957 236.933,160.957 235.6,161.624 C234.267,162.291 230.5,162.057 228.6,163.957 C227.1,165.457 226.6,164.624 225.267,173.624 C223.933,182.624 221.6,194.957 215.267,201.624 C208.933,208.291 202.267,214.957 182.267,213.624 C162.267,212.291 153.267,211.624 146.6,201.624 C139.933,191.624 137.6,181.624 135.933,176.624 C134.267,171.624 132.85,167.082 124.35,167.457 C116.33,167.811 114.308,169.957 112.975,176.957 C111.642,183.957 107.228,198.93 105,202.157 C103.067,204.957 97.933,218.291 66.267,216.957 C34.6,215.624 29.6,199.291 27.933,192.624 C26.267,185.957 24.267,175.291 22.6,172.957 C20.933,170.624 21.267,168.624 17.267,168.624 C13.267,168.624 12.933,169.957 11.6,168.624 C10.267,167.291 10.267,161.624 10.267,159.957 C10.267,158.291 10.433,157.24 11.475,157.082 C24.725,155.082 49.933,147.957 72.267,148.291 C94.6,148.624 109.208,156.987 111.267,160.957 C111.85,162.082 112.1,162.207 113.6,161.957 C116.251,161.516 118.267,161.291 123.6,161.291 C128.933,161.291 134.1,161.582 135.85,161.957 C136.397,162.075 137.267,159.624 138.6,157.957 C139.933,156.291 147.475,146.832 175.975,146.332 L180.35,146.31 z M70.975,152.207 C53.975,151.832 36.862,157.923 33.225,160.082 C29.225,162.457 28.468,165.566 28.725,175.707 C28.975,185.582 32.845,198.89 37.85,203.457 C47.85,212.582 56.475,213.332 68.225,213.707 C80.22,214.09 89.775,212.083 97.4,205.957 C105.025,199.833 107.721,182.79 108.2,176.557 C108.7,170.058 107.725,166.207 106.1,162.707 C104.475,159.207 87.975,152.582 70.975,152.207 z M177.108,150.396 C171.963,150.416 166.831,150.728 161.725,151.332 C150.655,152.825 140.564,159.954 140.225,163.457 C139.85,167.332 138.793,170.067 140.725,179.957 C142.6,189.557 148.85,199.207 152.225,202.707 C155.6,206.207 161.475,209.832 183.475,210.457 C205.475,211.082 211.225,200.957 215.6,194.957 C219.975,188.957 222.1,166.582 220.225,160.582 C218.35,154.582 209.976,153.119 201.975,151.707 C193.758,150.395 185.403,150.446 177.108,150.396 z"
      fill="#000000" />
    <path
      d="M208.267,75.624 C200.068,65.786 190.267,58.957 180.933,56.957 C171.6,54.957 160.267,56.957 156.267,60.957 C152.267,64.957 125.6,70.291 109.6,69.624 C93.6,68.957 78.97,68.926 64.933,80.957 C55.6,88.957 52.933,98.957 56.933,112.291 C59.176,119.765 69.6,136.291 54.267,132.291 C46.107,130.162 34.267,122.291 33.6,112.957 C32.933,103.624 29.6,108.957 27.6,115.624 C25.6,122.291 18.933,150.291 19.6,156.291 C20.267,162.291 19.6,186.291 18.933,184.957 C18.267,183.624 2.267,163.624 3.6,153.624 C4.933,143.624 -9.82,79.456 12.267,50.957 C32.933,24.291 71.49,3.68 118.267,0.291 C164.267,-3.043 224.267,22.957 236.267,43.624 C248.267,64.291 251.6,112.957 250.933,134.291 C250.267,155.624 239.6,181.624 236.267,181.624 C232.933,181.624 233.6,171.624 232.933,162.957 C232.267,154.291 221.727,106.131 219.6,97.624 C216.267,84.291 211.6,79.624 208.267,75.624 z"
      fill="#000000" />
    <path d="M38.767,312.124 C42.1,336.124 40.1,368.791 38.767,388.124" fill-opacity="0" stroke="#000000"
      stroke-width="2" />
    <path d="M216.1,309.457 C215.433,321.457 211.433,376.124 215.433,392.124" fill-opacity="0" stroke="#000000"
      stroke-width="2" />
    <path d="M152.1,183.457" fill-opacity="0" stroke="#000000" stroke-width="1" />
    <path
      d="M245.433,162.791 C250.767,162.791 253.1,168.457 253.433,172.457 C253.767,176.457 253.767,198.124 253.433,202.457 C253.1,206.791 255.433,215.791 256.1,219.791 C256.767,223.791 256.1,238.124 253.433,240.457 C250.767,242.791 247.1,243.791 246.433,246.124 C245.767,248.457 248.1,261.791 242.433,266.124 C236.767,270.457 232.433,269.124 232.1,263.791"
      fill-opacity="0" stroke="#000000" stroke-width="2" />
    <path
      d="M24.1,271.124 C20.767,273.457 14.433,272.457 12.767,269.457 C11.1,266.457 13.433,258.457 12.1,254.124 C10.767,249.791 4.808,244.119 4.433,241.124 C2.767,227.791 6.1,208.124 6.433,206.457 C6.767,204.791 3.433,190.124 4.1,184.791 C4.767,179.457 10.433,172.791 16.767,178.124"
      fill-opacity="0" stroke="#000000" stroke-width="2" />
  </g>
</svg>