<?xml version="1.0" encoding="UTF-8"?>
<!DOCTYPE svg PUBLIC "-//W3C//DTD SVG 1.1//EN" "http://www.w3.org/Graphics/SVG/1.1/DTD/svg11.dtd">
<svg version="1.1" xmlns="http://www.w3.org/2000/svg" xmlns:xlink="http://www.w3.org/1999/xlink" x="0" y="0" width="144" height="144" viewBox="0, 0, 144, 144">
  <g id="Layer_1">
    <path d="M122.732,122.729 L101.084,122.729 L101.084,85.165 C101.084,74.082 96.373,70.664 90.296,70.664 C83.873,70.664 77.574,75.499 77.574,85.442 L77.574,122.729 L55.925,122.729 L55.925,53.954 L76.745,53.954 L76.745,63.483 L77.021,63.483 C79.116,59.249 86.428,52.021 97.598,52.021 C109.678,52.021 122.732,59.186 122.732,80.194 L122.732,122.729 z M32.096,44.372 C25.202,44.372 19.614,39.126 19.614,31.946 C19.614,24.766 25.202,19.514 32.096,19.514 C38.989,19.514 44.577,24.766 44.577,31.946 C44.577,39.126 38.989,44.372 32.096,44.372 z M21.272,53.902 L42.921,53.902 L42.921,122.676 L21.272,122.676 z M133.374,0 L10.63,0 C4.759,0 -0,4.759 -0,10.63 L-0,133.37 C-0,139.241 4.759,144 10.63,144 L133.374,144 C139.245,144 144.004,139.241 144.004,133.37 L144.004,10.63 C144.004,4.759 139.245,0 133.374,0 z" fill="#000000"/>
  </g>
</svg>
